#!OML:ASF X:\für Bonn\!DataBase\2005_08_11_Bastian_Final\c3d\Bastian.ASF
:FULLY-SPECIFIED
:DEGREES
174
root -4.14054 16.9844 -17.0895 164.227 12.8927 -176.305
lowerback 6.45723 -4.37924 -3.42623
upperback 6.53004 -5.4828 -0.414416
thorax 3.45214 -2.66632 1.65694
lowerneck -4.05987 -0.855897 -11.1832
upperneck -1.93746 -0.388444 14.7305
head 0.183921 0.0347474 6.31591
rclavicle 4.6528e-014 4.77083e-015
rhumerus -59.4347 14.0774 -101.428
rradius 107.514
rwrist 14.3417
rhand -17.3322 14.9155
rfingers 7.12502
rthumb 8.91482 -14.8761
lclavicle 4.6528e-014 4.77083e-015
lhumerus 1.79832 -46.8893 84.6383
lradius 117.039
lwrist 31.2122
lhand -5.17 -12.6927
lfingers 7.12502
lthumb 20.6301 16.2309
rfemur -6.95804 13.3427 26.7034
rtibia 45.191
rfoot -193.322 -187.264
rtoes 2.99021
lfemur 16.2104 -1.7254 -10.1904
ltibia 48.1249
lfoot -7.31802 2.12845
ltoes -36.7647
175
root -4.2091 16.9564 -17.0361 164.684 12.7469 -176.045
lowerback 6.42797 -4.33291 -3.376
upperback 6.3739 -5.44372 -0.197266
thorax 3.31832 -2.6547 1.85613
lowerneck -4.12067 -0.958424 -11.0006
upperneck -2.09734 -0.506474 14.6804
head 0.163173 -0.0211541 6.26689
rclavicle -1.05604e-015 -2.22639e-014
rhumerus -58.9483 14.4752 -101.427
rradius 107.755
rwrist 13.9377
rhand -17.3471 14.9498
rfingers 7.12502
rthumb 8.90044 -14.8425
lclavicle -1.05604e-015 -2.22639e-014
lhumerus 1.35542 -47.1804 85.3207
lradius 116.99
lwrist 31.3537
lhand -5.25585 -12.7476
lfingers 7.12502
lthumb 20.5476 16.185
rfemur -7.97161 13.5259 26.6209
rtibia 45.7575
rfoot -193.258 -187.477
rtoes 3.2452
lfemur 16.9187 -1.74097 -10.0853
ltibia 46.0454
lfoot -8.36264 1.67545
ltoes -35.0565
176
root -4.27785 16.9295 -16.9786 165.119 12.6086 -175.763
lowerback 6.44603 -4.27931 -3.30028
upperback 6.22599 -5.39176 0.0222147
thorax 3.16379 -2.63397 2.04669
lowerneck -4.16625 -1.06817 -10.8613
upperneck -2.27848 -0.631392 14.653
head 0.134735 -0.0808958 6.23249
rclavicle 8.3589e-014 3.33958e-014
rhumerus -58.4627 14.9417 -101.403
rradius 107.984
rwrist 13.4907
rhand -17.451 15.0403
rfingers 7.12502
rthumb 8.80014 -14.7562
lclavicle 8.3589e-014 3.33958e-014
lhumerus 0.791885 -47.4288 86.1494
lradius 116.886
lwrist 31.4238
lhand -5.25104 -12.7934
lfingers 7.12502
lthumb 20.5522 16.1387
rfemur -8.95129 13.6584 26.5604
rtibia 46.2977
rfoot -193.166 -187.697
rtoes 3.44101
lfemur 17.4256 -1.64051 -9.87056
ltibia 44.205
lfoot -9.38201 1.2266
ltoes -32.4525
177
root -4.34572 16.9088 -16.9191 165.548 12.504 -175.52
lowerback 6.47996 -4.21386 -3.24691
upperback 6.0782 -5.32327 0.232338
thorax 3.00087 -2.60478 2.24056
lowerneck -4.24805 -1.18128 -10.805
upperneck -2.43859 -0.755258 14.6874
head 0.119066 -0.137461 6.232
rclavicle -1.6524e-014 1.03368e-014
rhumerus -58.029 15.491 -101.345
rradius 108.237
rwrist 13.0169
rhand -17.5899 15.1666
rfingers 7.12502
rthumb 8.66612 -14.6355
lclavicle -1.6524e-014 1.03368e-014
lhumerus 0.172726 -47.5651 87.0861
lradius 116.706
lwrist 31.4283
lhand -5.13117 -12.8231
lfingers 7.12502
lthumb 20.6674 16.0965
rfemur -9.90518 13.8008 26.4711
rtibia 46.7831
rfoot -193.057 -187.905
rtoes 3.73285
lfemur 17.7983 -1.3504 -9.61637
ltibia 42.5984
lfoot -10.4306 0.794551
ltoes -29.215
178
root -4.41334 16.8936 -16.8583 165.951 12.4277 -175.302
lowerback 6.5376 -4.12723 -3.15084
upperback 5.94499 -5.22118 0.408906
thorax 2.83007 -2.55504 2.37655
lowerneck -4.34153 -1.31801 -10.7791
upperneck -2.60876 -0.906926 14.7429
head 0.106513 -0.206866 6.24287
rclavicle 5.63306e-014 3.57812e-015
rhumerus -57.5633 16.021 -101.247
rradius 108.444
rwrist 12.5692
rhand -17.7576 15.3817
rfingers 7.12502
rthumb 8.50431 -14.427
lclavicle 5.63306e-014 3.57812e-015
lhumerus -0.564802 -47.687 88.1076
lradius 116.552
lwrist 31.3986
lhand -4.9056 -12.7572
lfingers 7.12502
lthumb 20.8841 16.1387
rfemur -10.8047 13.9156 26.3688
rtibia 47.2003
rfoot -192.897 -188.147
rtoes 3.98973
lfemur 18.0636 -0.89803 -9.33596
ltibia 41.2119
lfoot -11.4499 0.397283
ltoes -26.4517
179
root -4.47921 16.8836 -16.7966 166.365 12.3897 -175.102
lowerback 6.59443 -4.02617 -3.04445
upperback 5.80773 -5.09857 0.57672
thorax 2.65215 -2.49425 2.49693
lowerneck -4.45324 -1.4577 -10.8104
upperneck -2.77633 -1.05804 14.8312
head 0.0985276 -0.274498 6.27394
rclavicle -1.76608e-014 1.19271e-015
rhumerus -57.0657 16.5751 -101.118
rradius 108.584
rwrist 12.1979
rhand -17.9578 15.5568
rfingers 7.12502
rthumb 8.31109 -14.2597
lclavicle -1.76608e-014 1.19271e-015
lhumerus -1.41313 -47.7607 89.2057
lradius 116.399
lwrist 31.2971
lhand -4.67782 -12.6973
lfingers 7.12502
lthumb 21.1029 16.1743
rfemur -11.6871 14.0782 26.2698
rtibia 47.544
rfoot -192.685 -188.422
rtoes 4.32881
lfemur 18.2213 -0.454413 -9.12086
ltibia 40.0038
lfoot -12.4215 0.126279
ltoes -24.9238
180
root -4.54589 16.8775 -16.7338 166.756 12.4101 -174.92
lowerback 6.68172 -3.91294 -2.90147
upperback 5.6837 -4.95523 0.726348
thorax 2.46459 -2.42035 2.57885
lowerneck -4.59683 -1.60532 -10.9073
upperneck -2.93525 -1.21362 14.9667
head 0.100328 -0.341838 6.33101
rclavicle -8.28e-014 -1.07344e-014
rhumerus -56.5278 17.1308 -100.931
rradius 108.705
rwrist 11.9006
rhand -18.0918 15.7269
rfingers 7.12502
rthumb 8.18171 -14.0947
lclavicle -8.28e-014 -1.07344e-014
lhumerus -2.33861 -47.7732 90.3138
lradius 116.316
lwrist 31.224
lhand -4.40028 -12.553
lfingers 7.12502
lthumb 21.3695 16.2887
rfemur -12.5083 14.2255 26.1632
rtibia 47.8067
rfoot -192.447 -188.71
rtoes 4.39665
lfemur 18.3173 -0.0649038 -8.98105
ltibia 38.9596
lfoot -13.3347 -0.0287038
ltoes -23.3786
181
root -4.61249 16.8761 -16.6699 167.15 12.4957 -174.738
lowerback 6.77417 -3.77924 -2.74391
upperback 5.55869 -4.7828 0.870211
thorax 2.26951 -2.33113 2.6453
lowerneck -4.70098 -1.7422 -10.9708
upperneck -3.12776 -1.35487 15.0874
head 0.08397 -0.403835 6.37806
rclavicle 1.23619e-015 -1.51076e-014
rhumerus -55.9652 17.6527 -100.697
rradius 108.787
rwrist 11.6582
rhand -18.1105 15.8954
rfingers 7.12502
rthumb 8.16369 -13.9269
lclavicle 1.23619e-015 -1.51076e-014
lhumerus -3.37795 -47.7497 91.4542
lradius 116.259
lwrist 31.0963
lhand -4.15859 -12.4604
lfingers 7.12502
lthumb 21.6017 16.3547
rfemur -13.3081 14.3509 26.0583
rtibia 47.9916
rfoot -192.137 -188.961
rtoes 4.78755
lfemur 18.3137 0.329735 -8.84144
ltibia 38.0719
lfoot -13.9141 -0.18319
ltoes -22.4509
182
root -4.67868 16.88 -16.6062 167.518 12.6253 -174.555
lowerback 6.83861 -3.64018 -2.56575
upperback 5.49414 -4.59448 0.988992
thorax 2.14828 -2.23223 2.6688
lowerneck -4.85258 -1.8836 -10.9691
upperneck -3.35022 -1.49437 15.1906
head 0.0662715 -0.462581 6.40821
rclavicle 2.66713e-014 -4.25399e-014
rhumerus -55.3085 18.1654 -100.434
rradius 108.842
rwrist 11.4746
rhand -18.0854 16.0388
rfingers 7.12502
rthumb 8.1879 -13.7825
lclavicle 2.66713e-014 -4.25399e-014
lhumerus -4.34997 -47.7154 92.4789
lradius 116.179
lwrist 30.9643
lhand -3.96426 -12.4166
lfingers 7.12502
lthumb 21.7883 16.377
rfemur -14.0451 14.3275 25.9488
rtibia 48.103
rfoot -191.811 -189.069
rtoes 5.22147
lfemur 18.2128 0.73567 -8.69712
ltibia 37.3535
lfoot -14.3399 -0.343
ltoes -22.0301
183
root -4.74271 16.8877 -16.5438 167.882 12.7961 -174.395
lowerback 6.80801 -3.49307 -2.37155
upperback 5.51378 -4.38583 1.04825
thorax 2.16026 -2.12184 2.61154
lowerneck -5.10834 -2.03124 -10.8425
upperneck -3.58574 -1.63133 15.2781
head 0.0607697 -0.514639 6.41136
rclavicle -5.25941e-014 4.77083e-015
rhumerus -54.5056 18.6271 -100.184
rradius 108.882
rwrist 11.3122
rhand -17.9598 16.1024
rfingers 7.12502
rthumb 8.30915 -13.7142
lclavicle -5.25941e-014 4.77083e-015
lhumerus -5.14452 -47.7242 93.2178
lradius 116.099
lwrist 30.9242
lhand -3.87416 -12.4092
lfingers 7.12502
lthumb 21.8748 16.3743
rfemur -14.7479 14.262 25.8238
rtibia 48.1585
rfoot -191.474 -189.078
rtoes 5.94378
lfemur 17.975 1.17056 -8.562
ltibia 36.8084
lfoot -14.7026 -0.506592
ltoes -21.6751
184
root -4.80478 16.8959 -16.4819 168.242 12.9631 -174.233
lowerback 6.74486 -3.36551 -2.19628
upperback 5.56713 -4.20101 1.10678
thorax 2.22942 -2.0238 2.5618
lowerneck -5.40569 -2.16455 -10.6938
upperneck -3.85096 -1.74089 15.3463
head 0.0493782 -0.551007 6.40509
rclavicle -8.19459e-014 2.34566e-014
rhumerus -53.6874 19.1095 -99.936
rradius 108.949
rwrist 11.1133
rhand -17.8221 16.1415
rfingers 7.12502
rthumb 8.44201 -13.6698
lclavicle -8.19459e-014 2.34566e-014
lhumerus -5.88946 -47.7049 93.8658
lradius 115.995
lwrist 30.8714
lhand -3.8833 -12.4442
lfingers 7.12502
lthumb 21.866 16.3403
rfemur -15.4223 14.0974 25.7153
rtibia 48.1676
rfoot -191.117 -188.987
rtoes 6.59286
lfemur 17.6297 1.67067 -8.35955
ltibia 36.4179
lfoot -15.0255 -0.804628
ltoes -21.3392
185
root -4.8642 16.9047 -16.4179 168.587 13.1363 -174.074
lowerback 6.72048 -3.22118 -2.04234
upperback 5.60844 -3.99605 1.16087
thorax 2.26547 -1.91577 2.52148
lowerneck -5.68872 -2.30754 -10.5125
upperneck -4.09253 -1.86924 15.4064
head 0.0442286 -0.597304 6.38982
rclavicle -3.17807e-014 5.1684e-015
rhumerus -52.9057 19.5044 -99.69
rradius 109.03
rwrist 10.9455
rhand -17.6975 16.1995
rfingers 7.12502
rthumb 8.56224 -13.6069
lclavicle -3.17807e-014 5.1684e-015
lhumerus -6.71662 -47.7429 94.5163
lradius 115.956
lwrist 30.8452
lhand -4.02318 -12.5149
lfingers 7.12502
lthumb 21.7317 16.2852
rfemur -16.0568 13.8629 25.6267
rtibia 48.1379
rfoot -190.723 -188.822
rtoes 7.03081
lfemur 17.2265 2.19074 -8.13412
ltibia 36.1477
lfoot -15.3089 -1.12909
ltoes -20.9973
186
root -4.92186 16.9147 -16.3547 168.882 13.297 -173.92
lowerback 6.78484 -3.0708 -1.90101
upperback 5.61328 -3.78638 1.21766
thorax 2.21596 -1.80512 2.49667
lowerneck -5.86167 -2.4377 -10.3356
upperneck -4.3528 -1.98919 15.4563
head 0.013849 -0.645094 6.3728
rclavicle -5.48024e-014 1.47101e-014
rhumerus -52.2697 19.8406 -99.516
rradius 109.137
rwrist 10.7504
rhand -17.6188 16.272
rfingers 7.12502
rthumb 8.63817 -13.5313
lclavicle -5.48024e-014 1.47101e-014
lhumerus -7.65629 -47.7824 95.2377
lradius 115.882
lwrist 30.9367
lhand -4.1803 -12.5882
lfingers 7.12502
lthumb 21.5808 16.2293
rfemur -16.6004 13.5281 25.5669
rtibia 48.0696
rfoot -190.335 -188.627
rtoes 7.14841
lfemur 16.8304 2.6512 -7.92825
ltibia 35.9534
lfoot -15.587 -1.45598
ltoes -20.443
